<svg width="24" height="24" viewBox="0 0 24 24" fill="none" xmlns="http://www.w3.org/2000/svg">
<path fill-rule="evenodd" clip-rule="evenodd" d="M12.8616 0.030815C5.55201 -0.485297 -0.485297 5.55201 0.030815 12.8616C0.462908 19.211 6.00811 24 12.3695 24H16.7984C17.4586 24 17.9987 23.4599 17.9987 22.7997C17.9987 22.1396 17.4586 21.5995 16.7984 21.5995H12.3935C7.91652 21.5995 3.81163 18.6949 2.69539 14.3619C0.907005 7.40041 7.38841 0.907005 14.3499 2.70739C18.6949 3.81163 21.5995 7.91652 21.5995 12.3935V13.7138C21.5995 14.662 20.7473 15.5982 19.7991 15.5982C18.8509 15.5982 17.9987 14.662 17.9987 13.7138V12.2134C17.9987 9.2008 15.8622 6.48821 12.8856 6.06812C8.80471 5.47999 5.35997 9.00876 6.09213 13.1136C6.50021 15.4061 8.2886 17.3026 10.5571 17.8427C12.7656 18.3588 14.866 17.6506 16.2463 16.2463C17.3146 17.7106 19.451 18.4788 21.4074 17.6986C23.0158 17.0625 24 15.4181 24 13.6898V12.3815C24 6.00811 19.211 0.462908 12.8616 0.030815ZM11.9974 15.5981C10.005 15.5981 8.39661 13.9898 8.39661 11.9973C8.39661 10.0049 10.005 8.39654 11.9974 8.39654C13.9898 8.39654 15.5982 10.0049 15.5982 11.9973C15.5982 13.9898 13.9898 15.5981 11.9974 15.5981Z" fill="#E5E5E5"/>
</svg>
